%TF.GenerationSoftware,KiCad,Pcbnew,(6.0.6)*%
%TF.CreationDate,2022-06-23T13:00:25-07:00*%
%TF.ProjectId,TipBlaster_V1,54697042-6c61-4737-9465-725f56312e6b,rev?*%
%TF.SameCoordinates,Original*%
%TF.FileFunction,Legend,Top*%
%TF.FilePolarity,Positive*%
%FSLAX46Y46*%
G04 Gerber Fmt 4.6, Leading zero omitted, Abs format (unit mm)*
G04 Created by KiCad (PCBNEW (6.0.6)) date 2022-06-23 13:00:25*
%MOMM*%
%LPD*%
G01*
G04 APERTURE LIST*
%ADD10C,0.250000*%
%ADD11C,0.150000*%
%ADD12C,0.120000*%
%ADD13O,1.600000X1.600000*%
%ADD14R,1.600000X1.600000*%
%ADD15C,1.600000*%
%ADD16O,1.050000X1.500000*%
%ADD17R,1.050000X1.500000*%
%ADD18R,1.700000X1.700000*%
%ADD19O,1.700000X1.700000*%
G04 APERTURE END LIST*
D10*
X14478000Y-24487142D02*
X14525619Y-24534761D01*
X14478000Y-24582380D01*
X14430380Y-24534761D01*
X14478000Y-24487142D01*
X14478000Y-24582380D01*
X18288000Y-20423142D02*
X18335619Y-20470761D01*
X18288000Y-20518380D01*
X18240380Y-20470761D01*
X18288000Y-20423142D01*
X18288000Y-20518380D01*
D11*
X12485714Y-27868571D02*
X12819047Y-27868571D01*
X12961904Y-28392380D02*
X12485714Y-28392380D01*
X12485714Y-27392380D01*
X12961904Y-27392380D01*
X11501428Y-27868571D02*
X11644285Y-27916190D01*
X11691904Y-27963809D01*
X11739523Y-28059047D01*
X11739523Y-28201904D01*
X11691904Y-28297142D01*
X11644285Y-28344761D01*
X11549047Y-28392380D01*
X11168095Y-28392380D01*
X11168095Y-27392380D01*
X11501428Y-27392380D01*
X11596666Y-27440000D01*
X11644285Y-27487619D01*
X11691904Y-27582857D01*
X11691904Y-27678095D01*
X11644285Y-27773333D01*
X11596666Y-27820952D01*
X11501428Y-27868571D01*
X11168095Y-27868571D01*
X10469523Y-28297142D02*
X10421904Y-28344761D01*
X10279047Y-28392380D01*
X10183809Y-28392380D01*
X10040952Y-28344761D01*
X9945714Y-28249523D01*
X9898095Y-28154285D01*
X9850476Y-27963809D01*
X9850476Y-27820952D01*
X9898095Y-27630476D01*
X9945714Y-27535238D01*
X10040952Y-27440000D01*
X10183809Y-27392380D01*
X10279047Y-27392380D01*
X10421904Y-27440000D01*
X10469523Y-27487619D01*
X24328380Y-11921904D02*
X24328380Y-12493333D01*
X24328380Y-12207619D02*
X23328380Y-12207619D01*
X23471238Y-12302857D01*
X23566476Y-12398095D01*
X23614095Y-12493333D01*
X24328380Y-11493333D02*
X23328380Y-11493333D01*
X23947428Y-11398095D02*
X24328380Y-11112380D01*
X23661714Y-11112380D02*
X24042666Y-11493333D01*
X23328380Y-10493333D02*
X23328380Y-10302857D01*
X23376000Y-10207619D01*
X23471238Y-10112380D01*
X23661714Y-10064761D01*
X23995047Y-10064761D01*
X24185523Y-10112380D01*
X24280761Y-10207619D01*
X24328380Y-10302857D01*
X24328380Y-10493333D01*
X24280761Y-10588571D01*
X24185523Y-10683809D01*
X23995047Y-10731428D01*
X23661714Y-10731428D01*
X23471238Y-10683809D01*
X23376000Y-10588571D01*
X23328380Y-10493333D01*
X24328380Y-9636190D02*
X23328380Y-9636190D01*
X24328380Y-9207619D02*
X23804571Y-9207619D01*
X23709333Y-9255238D01*
X23661714Y-9350476D01*
X23661714Y-9493333D01*
X23709333Y-9588571D01*
X23756952Y-9636190D01*
X24328380Y-8731428D02*
X23661714Y-8731428D01*
X23756952Y-8731428D02*
X23709333Y-8683809D01*
X23661714Y-8588571D01*
X23661714Y-8445714D01*
X23709333Y-8350476D01*
X23804571Y-8302857D01*
X24328380Y-8302857D01*
X23804571Y-8302857D02*
X23709333Y-8255238D01*
X23661714Y-8160000D01*
X23661714Y-8017142D01*
X23709333Y-7921904D01*
X23804571Y-7874285D01*
X24328380Y-7874285D01*
X17835619Y-12747333D02*
X17788000Y-12699714D01*
X17740380Y-12604476D01*
X17740380Y-12366380D01*
X17788000Y-12271142D01*
X17835619Y-12223523D01*
X17930857Y-12175904D01*
X18026095Y-12175904D01*
X18168952Y-12223523D01*
X18740380Y-12794952D01*
X18740380Y-12175904D01*
X18740380Y-11747333D02*
X17740380Y-11747333D01*
X18359428Y-11652095D02*
X18740380Y-11366380D01*
X18073714Y-11366380D02*
X18454666Y-11747333D01*
X17740380Y-10747333D02*
X17740380Y-10556857D01*
X17788000Y-10461619D01*
X17883238Y-10366380D01*
X18073714Y-10318761D01*
X18407047Y-10318761D01*
X18597523Y-10366380D01*
X18692761Y-10461619D01*
X18740380Y-10556857D01*
X18740380Y-10747333D01*
X18692761Y-10842571D01*
X18597523Y-10937809D01*
X18407047Y-10985428D01*
X18073714Y-10985428D01*
X17883238Y-10937809D01*
X17788000Y-10842571D01*
X17740380Y-10747333D01*
X18740380Y-9890190D02*
X17740380Y-9890190D01*
X18740380Y-9461619D02*
X18216571Y-9461619D01*
X18121333Y-9509238D01*
X18073714Y-9604476D01*
X18073714Y-9747333D01*
X18121333Y-9842571D01*
X18168952Y-9890190D01*
X18740380Y-8985428D02*
X18073714Y-8985428D01*
X18168952Y-8985428D02*
X18121333Y-8937809D01*
X18073714Y-8842571D01*
X18073714Y-8699714D01*
X18121333Y-8604476D01*
X18216571Y-8556857D01*
X18740380Y-8556857D01*
X18216571Y-8556857D02*
X18121333Y-8509238D01*
X18073714Y-8414000D01*
X18073714Y-8271142D01*
X18121333Y-8175904D01*
X18216571Y-8128285D01*
X18740380Y-8128285D01*
X13152380Y-12175904D02*
X13152380Y-12747333D01*
X13152380Y-12461619D02*
X12152380Y-12461619D01*
X12295238Y-12556857D01*
X12390476Y-12652095D01*
X12438095Y-12747333D01*
X13152380Y-11747333D02*
X12152380Y-11747333D01*
X12771428Y-11652095D02*
X13152380Y-11366380D01*
X12485714Y-11366380D02*
X12866666Y-11747333D01*
X12152380Y-10747333D02*
X12152380Y-10556857D01*
X12200000Y-10461619D01*
X12295238Y-10366380D01*
X12485714Y-10318761D01*
X12819047Y-10318761D01*
X13009523Y-10366380D01*
X13104761Y-10461619D01*
X13152380Y-10556857D01*
X13152380Y-10747333D01*
X13104761Y-10842571D01*
X13009523Y-10937809D01*
X12819047Y-10985428D01*
X12485714Y-10985428D01*
X12295238Y-10937809D01*
X12200000Y-10842571D01*
X12152380Y-10747333D01*
X13152380Y-9890190D02*
X12152380Y-9890190D01*
X13152380Y-9461619D02*
X12628571Y-9461619D01*
X12533333Y-9509238D01*
X12485714Y-9604476D01*
X12485714Y-9747333D01*
X12533333Y-9842571D01*
X12580952Y-9890190D01*
X13152380Y-8985428D02*
X12485714Y-8985428D01*
X12580952Y-8985428D02*
X12533333Y-8937809D01*
X12485714Y-8842571D01*
X12485714Y-8699714D01*
X12533333Y-8604476D01*
X12628571Y-8556857D01*
X13152380Y-8556857D01*
X12628571Y-8556857D02*
X12533333Y-8509238D01*
X12485714Y-8414000D01*
X12485714Y-8271142D01*
X12533333Y-8175904D01*
X12628571Y-8128285D01*
X13152380Y-8128285D01*
X21346095Y-19743380D02*
X21346095Y-20552904D01*
X21393714Y-20648142D01*
X21441333Y-20695761D01*
X21536571Y-20743380D01*
X21727047Y-20743380D01*
X21822285Y-20695761D01*
X21869904Y-20648142D01*
X21917523Y-20552904D01*
X21917523Y-19743380D01*
X22917523Y-20743380D02*
X22346095Y-20743380D01*
X22631809Y-20743380D02*
X22631809Y-19743380D01*
X22536571Y-19886238D01*
X22441333Y-19981476D01*
X22346095Y-20029095D01*
X22042380Y-10326666D02*
X21566190Y-10660000D01*
X22042380Y-10898095D02*
X21042380Y-10898095D01*
X21042380Y-10517142D01*
X21090000Y-10421904D01*
X21137619Y-10374285D01*
X21232857Y-10326666D01*
X21375714Y-10326666D01*
X21470952Y-10374285D01*
X21518571Y-10421904D01*
X21566190Y-10517142D01*
X21566190Y-10898095D01*
X21042380Y-9993333D02*
X21042380Y-9374285D01*
X21423333Y-9707619D01*
X21423333Y-9564761D01*
X21470952Y-9469523D01*
X21518571Y-9421904D01*
X21613809Y-9374285D01*
X21851904Y-9374285D01*
X21947142Y-9421904D01*
X21994761Y-9469523D01*
X22042380Y-9564761D01*
X22042380Y-9850476D01*
X21994761Y-9945714D01*
X21947142Y-9993333D01*
X16454380Y-10326666D02*
X15978190Y-10660000D01*
X16454380Y-10898095D02*
X15454380Y-10898095D01*
X15454380Y-10517142D01*
X15502000Y-10421904D01*
X15549619Y-10374285D01*
X15644857Y-10326666D01*
X15787714Y-10326666D01*
X15882952Y-10374285D01*
X15930571Y-10421904D01*
X15978190Y-10517142D01*
X15978190Y-10898095D01*
X15549619Y-9945714D02*
X15502000Y-9898095D01*
X15454380Y-9802857D01*
X15454380Y-9564761D01*
X15502000Y-9469523D01*
X15549619Y-9421904D01*
X15644857Y-9374285D01*
X15740095Y-9374285D01*
X15882952Y-9421904D01*
X16454380Y-9993333D01*
X16454380Y-9374285D01*
X10866380Y-10326666D02*
X10390190Y-10660000D01*
X10866380Y-10898095D02*
X9866380Y-10898095D01*
X9866380Y-10517142D01*
X9914000Y-10421904D01*
X9961619Y-10374285D01*
X10056857Y-10326666D01*
X10199714Y-10326666D01*
X10294952Y-10374285D01*
X10342571Y-10421904D01*
X10390190Y-10517142D01*
X10390190Y-10898095D01*
X10866380Y-9374285D02*
X10866380Y-9945714D01*
X10866380Y-9660000D02*
X9866380Y-9660000D01*
X10009238Y-9755238D01*
X10104476Y-9850476D01*
X10152095Y-9945714D01*
X11334761Y-22137619D02*
X11239523Y-22090000D01*
X11144285Y-21994761D01*
X11001428Y-21851904D01*
X10906190Y-21804285D01*
X10810952Y-21804285D01*
X10858571Y-22042380D02*
X10763333Y-21994761D01*
X10668095Y-21899523D01*
X10620476Y-21709047D01*
X10620476Y-21375714D01*
X10668095Y-21185238D01*
X10763333Y-21090000D01*
X10858571Y-21042380D01*
X11049047Y-21042380D01*
X11144285Y-21090000D01*
X11239523Y-21185238D01*
X11287142Y-21375714D01*
X11287142Y-21709047D01*
X11239523Y-21899523D01*
X11144285Y-21994761D01*
X11049047Y-22042380D01*
X10858571Y-22042380D01*
X12239523Y-22042380D02*
X11668095Y-22042380D01*
X11953809Y-22042380D02*
X11953809Y-21042380D01*
X11858571Y-21185238D01*
X11763333Y-21280476D01*
X11668095Y-21328095D01*
X3222666Y-25389380D02*
X3222666Y-26103666D01*
X3175047Y-26246523D01*
X3079809Y-26341761D01*
X2936952Y-26389380D01*
X2841714Y-26389380D01*
X4222666Y-26389380D02*
X3651238Y-26389380D01*
X3936952Y-26389380D02*
X3936952Y-25389380D01*
X3841714Y-25532238D01*
X3746476Y-25627476D01*
X3651238Y-25675095D01*
D12*
X21108000Y-21291000D02*
G75*
G03*
X23108000Y-21291000I1000000J0D01*
G01*
X21108000Y-21291000D02*
X19458000Y-21291000D01*
X19458000Y-29031000D02*
X24758000Y-29031000D01*
X19458000Y-21291000D02*
X19458000Y-29031000D01*
X24758000Y-29031000D02*
X24758000Y-21291000D01*
X24758000Y-21291000D02*
X23108000Y-21291000D01*
X21590000Y-16740000D02*
X21590000Y-13430000D01*
X20220000Y-13430000D02*
X22960000Y-13430000D01*
X22960000Y-13430000D02*
X22960000Y-6890000D01*
X20220000Y-6890000D02*
X20220000Y-13430000D01*
X21590000Y-3580000D02*
X21590000Y-6890000D01*
X22960000Y-6890000D02*
X20220000Y-6890000D01*
X16002000Y-3580000D02*
X16002000Y-6890000D01*
X17372000Y-6890000D02*
X14632000Y-6890000D01*
X14632000Y-6890000D02*
X14632000Y-13430000D01*
X17372000Y-13430000D02*
X17372000Y-6890000D01*
X16002000Y-16740000D02*
X16002000Y-13430000D01*
X14632000Y-13430000D02*
X17372000Y-13430000D01*
X11784000Y-6890000D02*
X9044000Y-6890000D01*
X10414000Y-3580000D02*
X10414000Y-6890000D01*
X9044000Y-6890000D02*
X9044000Y-13430000D01*
X11784000Y-13430000D02*
X11784000Y-6890000D01*
X9044000Y-13430000D02*
X11784000Y-13430000D01*
X10414000Y-16740000D02*
X10414000Y-13430000D01*
X11430000Y-26984001D02*
G75*
G03*
X13268478Y-22545522I0J2600001D01*
G01*
X9591522Y-22545522D02*
G75*
G03*
X11430000Y-26984000I1838478J-1838478D01*
G01*
X13230000Y-22534000D02*
X9630000Y-22534000D01*
X4886000Y-22337000D02*
X2226000Y-22337000D01*
X4886000Y-4497000D02*
X2226000Y-4497000D01*
X4886000Y-22337000D02*
X4886000Y-4497000D01*
X4886000Y-23607000D02*
X4886000Y-24937000D01*
X2226000Y-22337000D02*
X2226000Y-4497000D01*
X4886000Y-24937000D02*
X3556000Y-24937000D01*
%LPC*%
D13*
X25918000Y-22621000D03*
X25918000Y-25161000D03*
X25918000Y-27701000D03*
X18298000Y-27701000D03*
X18298000Y-25161000D03*
D14*
X18298000Y-22621000D03*
D13*
X21590000Y-2540000D03*
D15*
X21590000Y-17780000D03*
D13*
X16002000Y-17780000D03*
D15*
X16002000Y-2540000D03*
X10414000Y-17780000D03*
D13*
X10414000Y-2540000D03*
D16*
X10160000Y-24384000D03*
X11430000Y-24384000D03*
D17*
X12700000Y-24384000D03*
D18*
X3556000Y-23607000D03*
D19*
X3556000Y-21067000D03*
X3556000Y-18527000D03*
X3556000Y-15987000D03*
X3556000Y-13447000D03*
X3556000Y-10907000D03*
X3556000Y-8367000D03*
X3556000Y-5827000D03*
M02*
